<?xml version="1.0" standalone="no"?>
   <!DOCTYPE svg PUBLIC "-//W3C//DTD SVG 1.1//EN" 
   "http://www.w3.org/Graphics/SVG/1.1/DTD/svg11.dtd"><svg id="svg" version="1.1" width="1851" height="2601" xmlns="http://www.w3.org/2000/svg"><path d="M737.056 226.602 C 734.275 232.433,732.000 241.672,732.000 247.132 C 732.000 256.715,733.073 257.603,762.750 272.594 C 779.663 281.137,789.450 287.196,784.500 286.058 C 779.550 284.920,770.775 283.879,765.000 283.745 C 756.199 283.540,754.340 284.632,753.509 290.494 C 752.573 297.104,752.298 297.186,748.504 291.998 C 744.747 286.860,744.356 287.036,742.421 294.747 C 741.284 299.279,741.165 305.103,742.158 307.689 C 743.588 311.417,742.567 311.958,737.231 310.300 C 733.529 309.149,730.050 307.035,729.500 305.603 C 728.950 304.172,725.238 303.000,721.250 303.000 C 717.053 303.000,714.000 301.240,714.000 298.821 C 714.000 292.093,705.528 290.610,703.505 296.983 C 702.314 300.737,695.961 304.330,684.756 307.587 C 670.641 311.691,664.233 316.106,646.410 334.007 C 632.514 347.965,622.038 361.811,616.530 373.500 C 608.737 390.039,608.035 394.421,607.879 427.500 C 607.695 466.824,615.461 503.512,627.103 518.312 C 630.346 522.435,633.000 526.765,633.000 527.934 C 633.000 532.235,550.190 569.749,544.170 568.175 C 533.222 565.312,437.437 610.841,431.647 621.659 C 429.391 625.875,429.536 630.052,432.160 636.387 C 437.879 650.193,444.285 651.983,462.410 644.838 C 493.372 632.634,555.785 599.145,557.127 594.016 C 557.941 590.900,575.715 580.514,602.229 567.659 L 645.986 546.444 652.123 554.472 C 667.558 574.663,701.500 606.863,712.321 611.582 L 724.266 616.791 724.383 655.645 C 724.484 689.294,725.325 695.907,730.659 705.000 C 735.272 712.864,736.290 718.041,734.713 725.618 C 733.555 731.183,730.946 754.050,728.915 776.434 C 725.666 812.253,724.011 819.661,715.112 838.231 C 706.481 856.240,704.976 862.639,704.836 881.915 C 704.746 894.469,701.370 919.157,697.237 937.500 C 693.148 955.650,689.754 972.753,689.696 975.508 C 689.638 978.262,687.518 981.311,684.984 982.283 C 682.440 983.259,681.134 986.022,682.067 988.453 C 682.996 990.875,681.801 999.301,679.411 1007.178 C 677.021 1015.055,675.157 1024.875,675.269 1029.000 C 675.487 1036.983,676.373 1035.497,679.295 1022.250 C 680.296 1017.713,682.262 1014.000,683.664 1014.000 C 685.066 1014.000,682.777 1025.461,678.577 1039.470 C 670.932 1064.966,665.669 1073.510,671.929 1050.262 C 674.115 1042.146,674.258 1036.141,672.346 1032.725 C 669.940 1028.426,667.852 1030.886,660.220 1047.016 C 648.373 1072.050,646.978 1080.240,650.314 1105.142 C 652.925 1124.628,652.389 1127.850,638.831 1174.175 C 631.009 1200.901,621.294 1229.640,617.242 1238.039 C 612.132 1248.631,610.710 1254.801,612.600 1258.178 C 614.099 1260.856,614.275 1264.724,612.992 1266.774 C 611.708 1268.823,610.567 1271.850,610.456 1273.500 C 610.344 1275.150,608.393 1282.575,606.121 1290.000 C 603.849 1297.425,601.661 1304.850,601.260 1306.500 C 600.859 1308.150,590.117 1340.550,577.390 1378.500 C 564.663 1416.450,554.016 1448.850,553.730 1450.500 C 553.445 1452.150,551.771 1456.200,550.011 1459.500 C 548.251 1462.800,547.478 1467.375,548.295 1469.668 C 549.201 1472.214,548.460 1473.021,546.389 1471.741 C 544.456 1470.546,542.839 1471.655,542.625 1474.323 C 542.419 1476.895,541.977 1480.013,541.642 1481.250 C 541.308 1482.488,539.977 1488.563,538.684 1494.750 C 537.390 1500.938,535.053 1506.000,533.489 1506.000 C 531.925 1506.000,531.424 1507.259,532.375 1508.797 C 533.326 1510.336,530.715 1519.256,526.574 1528.620 C 522.433 1537.984,519.718 1546.735,520.541 1548.066 C 521.364 1549.398,520.718 1550.940,519.105 1551.494 C 517.493 1552.047,515.662 1555.200,515.037 1558.500 C 514.413 1561.800,513.026 1566.525,511.957 1569.000 C 510.888 1571.475,497.411 1611.449,482.008 1657.832 C 458.044 1729.995,454.659 1742.577,458.546 1745.029 C 462.503 1747.525,462.572 1749.804,459.079 1762.697 C 456.874 1770.839,454.123 1778.850,452.968 1780.500 C 451.812 1782.150,450.132 1786.200,449.234 1789.500 C 448.335 1792.800,430.493 1845.450,409.584 1906.500 C 377.255 2000.894,333.956 2128.205,296.074 2240.250 C 286.703 2267.969,283.872 2271.072,273.709 2264.770 C 269.978 2262.456,266.044 2262.479,259.844 2264.850 L 251.188 2268.160 253.281 2294.330 C 254.432 2308.724,256.663 2326.316,258.239 2333.424 C 261.761 2349.315,259.191 2354.562,243.994 2362.514 C 228.719 2370.505,226.899 2380.430,240.220 2383.094 C 258.129 2386.676,277.376 2385.003,293.062 2378.502 C 309.882 2371.530,314.292 2365.877,308.426 2358.808 C 306.403 2356.370,303.881 2347.429,302.823 2338.938 C 301.764 2330.447,299.994 2321.443,298.889 2318.929 C 297.101 2314.864,369.058 2097.314,457.903 1838.173 L 487.500 1751.846 495.803 1752.673 L 504.107 1753.500 530.847 1672.500 C 545.554 1627.950,573.987 1540.875,594.031 1479.000 C 614.076 1417.125,635.576 1350.975,641.809 1332.000 C 648.042 1313.025,655.022 1291.425,657.321 1284.000 C 661.435 1270.711,661.742 1270.470,676.946 1268.615 C 685.442 1267.578,694.079 1265.687,696.139 1264.414 C 698.199 1263.141,705.423 1261.767,712.193 1261.361 C 743.482 1259.487,837.015 1256.588,837.136 1257.490 C 837.648 1261.278,848.820 1637.624,848.900 1653.750 C 848.990 1671.967,849.603 1674.000,855.000 1674.000 C 858.300 1674.000,861.001 1675.013,861.002 1676.250 C 861.005 1678.214,871.867 2022.505,872.889 2053.027 C 873.102 2059.366,871.713 2066.436,869.802 2068.738 C 867.892 2071.040,867.129 2075.009,868.107 2077.558 C 869.304 2080.677,867.381 2083.144,862.224 2085.105 C 857.282 2086.984,854.918 2089.877,855.562 2093.259 C 856.367 2097.486,860.328 2098.680,876.030 2099.428 C 903.745 2100.748,915.000 2098.194,915.000 2090.583 C 915.000 2086.878,912.517 2083.789,908.746 2082.803 C 904.130 2081.596,903.516 2080.535,906.401 2078.752 C 909.570 2076.794,909.618 2073.042,906.656 2058.919 C 904.646 2049.339,901.728 2041.076,900.170 2040.557 C 898.612 2040.037,898.081 2037.675,898.989 2035.306 C 899.898 2032.938,899.250 2031.000,897.548 2031.000 C 895.544 2031.000,894.341 2011.183,894.133 1974.750 C 893.957 1943.813,892.533 1863.909,890.969 1797.187 C 889.405 1730.466,888.434 1675.638,888.813 1675.348 C 889.191 1675.058,893.451 1673.545,898.280 1671.984 L 907.060 1669.147 906.403 1633.323 C 906.042 1613.621,903.786 1525.324,901.390 1437.110 C 897.527 1294.894,897.541 1276.436,901.517 1274.211 C 903.983 1272.831,906.000 1268.441,906.000 1264.456 C 906.000 1260.278,908.543 1255.850,912.010 1253.995 C 915.594 1252.077,947.985 1250.211,992.260 1249.373 C 1033.092 1248.600,1071.900 1247.324,1078.500 1246.537 C 1091.910 1244.940,1099.220 1248.942,1103.533 1260.244 C 1106.967 1269.244,1226.971 1544.782,1276.939 1658.397 C 1285.864 1678.691,1295.170 1700.303,1297.620 1706.424 C 1301.407 1715.890,1303.449 1717.550,1311.278 1717.527 C 1321.594 1717.497,1312.418 1699.429,1389.725 1872.000 C 1407.095 1910.775,1442.496 1989.713,1468.393 2047.418 C 1529.721 2184.074,1530.032 2184.826,1526.685 2188.870 C 1523.702 2192.474,1526.093 2202.000,1529.980 2202.000 C 1531.267 2202.000,1533.064 2205.713,1533.975 2210.250 C 1534.886 2214.788,1536.948 2223.900,1538.559 2230.500 C 1541.758 2243.611,1543.924 2253.004,1546.715 2265.872 C 1547.848 2271.099,1546.801 2276.883,1543.927 2281.270 C 1537.754 2290.691,1542.727 2297.418,1558.580 2301.093 C 1574.330 2304.745,1602.677 2304.735,1612.305 2301.074 C 1627.403 2295.334,1619.035 2280.000,1600.803 2280.000 C 1587.134 2280.000,1579.775 2258.110,1585.729 2235.159 C 1588.286 2225.301,1588.944 2215.393,1587.501 2208.487 C 1585.468 2198.756,1584.279 2197.610,1577.103 2198.465 C 1572.646 2198.995,1569.000 2198.115,1569.000 2196.508 C 1569.000 2194.902,1564.950 2192.175,1560.000 2190.450 C 1555.050 2188.724,1551.000 2185.277,1551.000 2182.789 C 1551.000 2180.302,1547.661 2173.346,1543.579 2167.331 C 1539.498 2161.317,1535.258 2151.470,1534.158 2145.448 C 1533.057 2139.427,1488.420 2039.325,1434.965 1923.000 C 1365.457 1771.743,1338.252 1709.566,1339.453 1704.711 C 1340.572 1700.193,1333.968 1681.125,1319.711 1647.711 C 1294.642 1588.953,1188.632 1343.767,1165.699 1291.500 C 1157.011 1271.700,1148.161 1250.100,1146.033 1243.500 C 1138.512 1220.179,1136.478 1215.571,1131.206 1209.912 C 1127.092 1205.496,1117.516 1182.784,1114.378 1170.000 C 1114.176 1169.175,1111.064 1161.931,1107.463 1153.903 C 1103.862 1145.874,1098.417 1131.699,1095.364 1122.403 C 1092.310 1113.106,1076.931 1073.100,1061.188 1033.500 C 1045.445 993.900,1024.378 940.575,1014.372 915.000 C 1004.366 889.425,985.817 842.175,973.153 810.000 C 955.822 765.968,950.311 748.532,950.868 739.500 C 951.275 732.900,951.609 724.384,951.610 720.575 C 951.613 712.584,942.582 701.286,938.304 703.930 C 936.516 705.035,935.809 697.843,936.455 685.109 L 937.500 664.500 928.642 663.492 C 913.115 661.725,911.771 655.762,921.142 630.220 C 925.727 617.724,932.295 600.976,935.739 593.001 C 942.111 578.245,944.185 553.705,939.315 550.694 C 935.086 548.081,942.067 524.815,951.075 511.500 C 955.540 504.900,962.912 492.075,967.457 483.000 C 972.003 473.925,976.015 466.157,976.374 465.737 C 976.733 465.317,981.002 466.957,985.862 469.382 C 998.046 475.460,1026.862 482.670,1030.447 480.537 C 1040.643 474.473,1059.000 483.901,1059.000 495.202 C 1059.000 498.038,1061.025 501.135,1063.500 502.085 C 1065.975 503.035,1068.000 506.405,1068.000 509.573 C 1068.000 517.482,1076.904 527.007,1086.272 529.121 C 1093.450 530.740,1094.862 529.215,1104.719 509.187 C 1119.301 479.559,1119.933 477.003,1114.238 470.711 C 1109.973 465.997,1109.803 463.214,1112.935 449.395 C 1122.440 407.467,1125.801 398.547,1133.147 395.754 C 1139.264 393.428,1140.221 391.308,1139.431 381.834 C 1138.556 371.326,1137.749 370.510,1125.949 368.191 C 1110.495 365.155,1093.859 369.063,1092.514 376.044 C 1089.840 389.931,1066.284 402.359,1060.470 392.951 C 1059.433 391.274,1057.329 390.679,1055.793 391.628 C 1054.257 392.577,1053.000 391.446,1053.000 389.114 C 1053.000 386.694,1046.883 382.922,1038.750 380.326 C 1030.913 377.825,1024.635 374.253,1024.800 372.389 C 1024.965 370.525,1025.303 365.599,1025.550 361.443 C 1025.937 354.946,1027.053 354.150,1033.500 355.768 C 1039.172 357.192,1041.000 356.474,1041.000 352.825 C 1041.000 346.891,1046.749 346.807,1067.887 352.432 C 1080.623 355.821,1084.783 355.981,1086.557 353.146 C 1090.448 346.934,1095.600 317.890,1093.693 312.920 C 1092.147 308.893,1093.966 308.480,1106.192 310.084 C 1114.061 311.117,1131.975 312.798,1146.000 313.821 C 1169.914 315.564,1172.009 315.236,1179.683 308.552 C 1189.689 299.836,1192.595 287.063,1188.245 270.908 C 1184.288 256.213,1179.827 254.083,1140.000 247.869 C 1086.153 239.467,1071.240 238.853,1064.707 244.765 C 1058.949 249.976,1053.333 250.488,1026.000 248.288 C 1017.156 247.576,1010.674 248.720,1007.206 251.605 C 1002.540 255.487,993.306 255.234,929.206 249.466 C 848.533 242.207,830.210 241.606,822.083 245.955 C 816.255 249.075,809.886 246.846,765.636 226.201 C 753.610 220.590,743.398 216.000,742.941 216.000 C 742.485 216.000,739.836 220.771,737.056 226.602 M937.500 273.284 C 944.304 275.303,941.839 275.656,927.403 274.731 C 916.900 274.057,906.949 272.149,905.290 270.490 C 901.869 267.069,922.625 268.870,937.500 273.284 M989.369 275.750 C 1005.700 278.907,1006.812 280.169,1002.144 290.237 C 998.380 298.355,998.269 298.385,995.822 291.937 C 993.144 284.879,972.117 276.957,969.084 281.863 C 968.160 283.360,964.050 282.008,959.951 278.859 L 952.500 273.133 964.500 273.197 C 971.100 273.233,982.291 274.381,989.369 275.750 M871.134 289.540 C 877.110 292.037,882.000 294.931,882.000 295.971 C 882.000 297.011,877.681 302.279,872.403 307.677 L 862.806 317.492 851.455 310.996 C 837.115 302.790,834.807 297.031,843.149 290.276 C 851.129 283.814,857.057 283.659,871.134 289.540 M807.000 296.071 C 807.000 301.976,799.764 299.362,798.532 293.012 C 797.857 289.532,798.992 288.569,802.282 289.831 C 804.877 290.827,807.000 293.635,807.000 296.071 M1056.921 297.410 C 1061.463 302.586,1064.602 307.398,1063.896 308.104 C 1061.067 310.933,1041.000 305.068,1041.000 301.411 C 1041.000 295.804,1044.289 288.000,1046.653 288.000 C 1047.759 288.000,1052.380 292.235,1056.921 297.410 M902.055 300.351 C 906.700 302.194,917.783 304.557,926.684 305.601 C 945.260 307.781,952.613 314.673,944.751 322.534 C 940.555 326.730,939.016 326.443,928.893 319.573 C 921.757 314.730,915.287 312.554,911.091 313.584 C 901.959 315.827,881.183 305.017,885.783 300.417 C 890.022 296.178,891.523 296.172,902.055 300.351 M691.067 336.750 C 689.981 348.713,687.911 359.277,686.466 360.226 C 685.022 361.176,683.539 366.236,683.170 371.470 C 682.802 376.705,680.931 380.991,679.014 380.994 C 677.096 380.997,674.587 386.568,673.437 393.374 C 671.559 404.488,672.202 406.482,679.751 412.969 C 689.221 421.107,690.933 419.723,694.251 401.250 C 696.203 390.381,702.000 385.332,702.000 394.500 C 702.000 396.975,703.262 399.000,704.805 399.000 C 706.347 399.000,710.948 400.269,715.029 401.821 C 722.889 404.809,722.893 405.067,715.541 432.750 C 713.730 439.569,714.316 441.008,718.925 441.046 C 731.209 441.147,732.488 444.581,728.361 466.376 C 725.951 479.099,722.809 487.362,720.000 488.358 C 717.525 489.237,698.717 497.860,678.205 507.522 C 649.747 520.926,640.276 524.190,638.237 521.295 C 624.895 502.349,613.248 445.225,615.710 410.815 C 617.766 382.073,628.121 362.329,653.888 338.022 C 665.289 327.267,677.741 317.871,681.558 317.142 C 685.376 316.413,689.522 315.633,690.771 315.409 C 692.020 315.184,692.153 324.788,691.067 336.750 M957.750 331.987 C 955.688 332.819,952.313 332.819,950.250 331.987 C 948.188 331.155,949.875 330.474,954.000 330.474 C 958.125 330.474,959.813 331.155,957.750 331.987 M987.041 341.250 C 987.063 345.788,987.896 352.538,988.891 356.250 C 990.374 361.784,989.485 363.000,983.957 363.000 C 977.836 363.000,977.386 361.965,979.074 351.750 C 980.097 345.563,980.949 338.813,980.967 336.750 C 980.985 334.688,982.350 333.000,984.000 333.000 C 985.650 333.000,987.018 336.713,987.041 341.250 M967.581 344.244 C 966.443 348.778,965.037 352.963,964.456 353.544 C 962.093 355.907,957.000 350.292,957.000 345.323 C 957.000 338.871,959.564 336.000,965.325 336.000 C 968.545 336.000,969.122 338.107,967.581 344.244 M1011.552 355.513 C 1015.405 363.971,1013.512 367.606,1006.629 364.965 C 1001.536 363.010,1000.152 348.000,1005.064 348.000 C 1006.750 348.000,1009.669 351.381,1011.552 355.513 M738.446 423.000 C 737.176 439.262,736.144 440.712,730.924 433.573 C 728.492 430.246,725.422 429.003,723.134 430.417 C 720.322 432.155,719.884 430.930,721.417 425.626 C 722.549 421.707,724.160 416.059,724.996 413.075 C 725.984 409.548,728.787 407.974,733.008 408.575 C 738.754 409.394,739.379 411.052,738.446 423.000 M763.032 443.250 C 764.309 445.313,767.299 447.000,769.677 447.000 C 772.055 447.000,774.000 449.256,774.000 452.014 C 774.000 454.771,775.865 459.159,778.145 461.764 C 782.566 466.815,788.354 483.025,784.399 479.276 C 783.108 478.053,780.578 478.205,778.776 479.615 C 776.974 481.025,765.038 483.021,752.250 484.051 C 726.073 486.159,726.496 486.599,732.347 463.366 C 734.205 455.985,737.016 450.892,738.668 451.913 C 740.485 453.036,740.869 451.313,739.655 447.489 C 737.381 440.325,742.872 427.949,747.151 430.593 C 748.718 431.562,750.000 438.438,750.000 445.874 C 750.000 460.490,754.568 472.239,759.151 469.407 C 764.057 466.375,762.481 453.000,757.217 453.000 C 753.202 453.000,752.701 450.231,754.093 435.750 C 756.232 413.519,756.381 413.254,758.731 427.500 C 759.819 434.100,761.755 441.188,763.032 443.250 M947.985 457.133 C 947.998 462.062,946.440 462.517,935.536 460.774 C 920.888 458.431,917.268 456.611,919.637 452.778 C 920.592 451.234,927.357 450.315,934.671 450.735 C 945.404 451.352,947.973 452.587,947.985 457.133 M967.425 458.879 C 968.404 460.463,964.362 470.925,958.443 482.129 C 952.525 493.333,948.543 499.800,949.596 496.500 C 950.649 493.200,952.158 485.775,952.950 480.000 C 955.672 460.137,957.125 456.000,961.380 456.000 C 963.726 456.000,966.447 457.296,967.425 458.879 M928.358 496.671 C 938.864 498.642,939.093 498.975,937.234 509.597 C 934.899 522.942,931.713 528.165,913.712 548.155 C 901.793 561.391,898.792 563.297,894.293 560.487 C 889.685 557.609,889.342 555.106,891.732 541.832 C 893.250 533.399,896.217 522.450,898.325 517.500 C 900.432 512.550,903.728 504.655,905.648 499.956 C 907.852 494.563,910.695 492.008,913.357 493.030 C 915.676 493.920,922.427 495.559,928.358 496.671 M773.982 506.250 C 773.973 507.488,769.801 523.350,764.713 541.500 C 759.624 559.650,755.153 576.525,754.777 579.000 C 754.401 581.475,751.823 587.820,749.047 593.101 C 746.271 598.382,744.000 605.469,744.000 608.851 C 744.000 615.474,741.814 616.375,735.486 612.364 C 732.154 610.252,732.126 605.921,735.321 586.909 C 739.007 564.971,737.327 541.365,730.129 513.962 C 728.654 508.350,729.833 507.250,738.456 506.192 C 756.802 503.942,774.000 503.970,773.982 506.250 M730.484 536.915 C 734.997 560.152,735.198 566.610,731.958 584.165 C 729.893 595.349,727.635 605.502,726.939 606.728 C 724.185 611.575,702.415 596.328,682.317 575.477 C 649.042 540.954,648.678 545.752,686.006 526.803 C 703.878 517.732,720.020 510.240,721.878 510.155 C 723.777 510.068,727.545 521.784,730.484 536.915 M793.905 524.296 C 795.777 525.508,798.053 532.575,798.961 540.000 C 799.869 547.425,801.528 557.888,802.647 563.250 C 804.040 569.926,803.556 573.000,801.112 573.000 C 798.569 573.000,797.824 579.903,798.522 597.007 L 799.500 621.014 791.250 621.007 C 784.224 621.001,783.000 619.759,783.000 612.634 C 783.000 608.033,780.325 599.021,777.055 592.607 C 771.413 581.542,771.346 580.013,775.736 562.723 C 787.156 517.749,786.368 519.417,793.905 524.296 M776.049 537.563 C 775.092 539.956,774.381 539.245,774.237 535.750 C 774.107 532.588,774.816 530.816,775.813 531.813 C 776.809 532.809,776.916 535.397,776.049 537.563 M772.987 552.750 C 772.155 554.813,771.474 553.125,771.474 549.000 C 771.474 544.875,772.155 543.188,772.987 545.250 C 773.819 547.313,773.819 550.688,772.987 552.750 M742.191 628.336 C 744.092 635.912,739.572 704.428,737.001 706.999 C 736.096 707.904,733.103 700.898,730.350 691.429 C 726.421 677.912,725.793 668.249,727.427 646.454 C 729.294 621.548,730.072 618.842,735.000 620.131 C 738.020 620.921,741.256 624.613,742.191 628.336 M806.380 636.122 C 810.324 642.438,808.993 648.000,803.536 648.000 C 801.826 648.000,796.428 650.847,791.540 654.327 C 786.653 657.807,782.053 660.053,781.317 659.317 C 780.582 658.582,780.843 651.685,781.898 643.990 C 783.715 630.732,784.306 630.000,793.186 630.000 C 799.370 630.000,803.857 632.082,806.380 636.122 M901.582 770.250 C 909.319 786.886,909.524 788.674,907.346 820.500 C 906.104 838.650,904.747 859.575,904.330 867.000 C 903.913 874.425,902.094 891.940,900.286 905.921 C 898.479 919.903,897.000 938.016,897.000 946.171 C 897.000 954.327,896.251 960.251,895.337 959.337 C 894.422 958.422,892.300 914.799,890.621 862.398 C 887.900 777.436,888.283 753.000,892.337 753.000 C 893.010 753.000,897.170 760.763,901.582 770.250 M812.672 788.942 C 804.192 804.030,802.599 802.793,808.518 785.718 C 816.034 764.036,816.906 762.646,818.233 770.226 C 818.881 773.925,816.378 782.348,812.672 788.942 M744.605 804.000 C 744.819 806.475,735.261 842.925,723.365 885.000 C 698.560 972.739,699.313 970.313,697.448 968.448 C 696.672 967.672,700.694 950.267,706.386 929.769 C 712.077 909.271,719.558 877.650,723.010 859.500 C 726.462 841.350,731.247 818.986,733.643 809.803 C 736.039 800.620,738.148 788.470,738.329 782.803 C 738.642 772.993,738.791 773.146,741.438 786.000 C 742.967 793.425,744.392 801.525,744.605 804.000 M734.049 789.563 C 733.092 791.956,732.381 791.245,732.237 787.750 C 732.107 784.588,732.816 782.816,733.813 783.813 C 734.809 784.809,734.916 787.397,734.049 789.563 M718.230 859.531 C 710.506 902.266,708.152 907.647,709.054 880.500 C 709.755 859.411,717.449 830.449,721.321 834.321 C 722.004 835.004,720.613 846.348,718.230 859.531 M822.497 900.244 C 823.596 933.935,826.822 1022.421,829.665 1096.880 C 832.509 1171.339,833.899 1235.995,832.753 1240.561 L 830.669 1248.862 802.501 1247.181 C 787.009 1246.257,773.921 1246.670,773.417 1248.098 C 772.912 1249.527,756.921 1251.621,737.880 1252.751 C 708.822 1254.475,701.726 1254.012,693.716 1249.870 C 685.096 1245.413,684.463 1244.173,687.172 1237.048 C 689.521 1230.869,689.084 1227.961,685.156 1223.620 C 680.552 1218.533,680.519 1216.786,684.748 1202.289 C 687.282 1193.605,702.449 1141.950,718.453 1087.500 C 734.457 1033.050,757.214 955.425,769.025 915.000 L 790.500 841.500 802.500 839.698 C 809.100 838.707,815.850 838.142,817.500 838.442 C 819.306 838.770,821.295 863.367,822.497 900.244 M1008.014 1030.500 C 1082.722 1219.524,1080.136 1212.292,1075.420 1219.025 C 1068.123 1229.443,997.872 1241.551,943.743 1241.719 C 919.830 1241.794,899.603 1240.785,898.796 1239.478 C 897.438 1237.282,896.727 1208.893,896.707 1156.139 C 896.699 1132.891,898.213 1131.145,918.467 1131.041 C 929.776 1130.983,942.951 1109.838,953.913 1074.151 C 966.178 1034.227,968.139 1023.463,970.530 982.964 C 971.684 963.419,973.653 948.569,974.907 949.964 C 976.160 951.359,991.058 987.600,1008.014 1030.500 M666.058 1058.774 C 662.939 1070.899,660.457 1085.875,660.542 1092.053 C 660.628 1098.231,659.322 1105.745,657.640 1108.749 C 655.169 1113.165,654.181 1110.996,652.486 1097.430 C 651.333 1088.201,651.385 1077.465,652.601 1073.574 C 656.623 1060.708,669.054 1034.054,670.403 1035.403 C 671.132 1036.132,669.177 1046.649,666.058 1058.774 " stroke="none" fill="black" fill-rule="evenodd"/></svg>